<svg width="32" height="32" viewBox="0 0 32 32" fill="none" xmlns="http://www.w3.org/2000/svg">
<rect width="32" height="32" rx="16" fill="white"/>
<path fill-rule="evenodd" clip-rule="evenodd" d="M18.5034 5.296L15.9999 4L13.4964 5.296L10.7094 5.719L9.44642 8.239L7.44092 10.219L7.89992 13L7.44092 15.781L9.44642 17.761L10.7094 20.281L13.4964 20.704L15.9999 22L18.5034 20.704L21.2904 20.281L22.5534 17.761L24.5589 15.781L24.0999 13L24.5589 10.219L22.5534 8.239L21.2904 5.719L18.5034 5.296ZM10 27.9999V21.6909L13.027 22.1499L16 23.6889L18.973 22.1499L22 21.6909V27.9999L16 26.4999L10 27.9999Z" fill="#FFB800"/>
</svg>
